<svg xmlns="http://www.w3.org/2000/svg" viewBox="0 0 109.26 115.05"><defs><style>.cls-1{fill:none;}.cls-2{fill:#6f50e4;}.cls-3{fill:#ff8b00;}</style></defs><title>Asset 1</title><g id="Layer_2" data-name="Layer 2"><g id="Layer_1-2" data-name="Layer 1"><path class="cls-1" d="M54.63,56.65a3.77,3.77,0,1,0,3.79,3.79A3.78,3.78,0,0,0,54.63,56.65Z"/><path class="cls-2" d="M61.64,6.25V9.92a51,51,0,1,1-58,50.5,51.25,51.25,0,0,1,44-50.5V6.24a54.63,54.63,0,1,0,61.63,54.18A54.94,54.94,0,0,0,61.64,6.25Z"/><path class="cls-2" d="M55.38,83.89A23.27,23.27,0,1,1,77,53.62h3.77a26.9,26.9,0,1,0,0,14H77A23.2,23.2,0,0,1,55.38,83.89Z"/><path class="cls-3" d="M24,79.6l-4.63,3.15A41.77,41.77,0,0,1,54.63,18.67c.59,0,1.17,0,1.75,0v-17h-3.5V15.08A45.39,45.39,0,0,0,18.35,87.69L26,82.48c-.37-.48-.74-1-1.09-1.48S24.29,80.07,24,79.6Z"/><path class="cls-3" d="M73.15,87.14A32.57,32.57,0,0,1,29,80.43l-3,2a36.2,36.2,0,0,0,49.22,7.65A35.81,35.81,0,0,0,89.09,71.35l-3.46-1.09A32.26,32.26,0,0,1,73.15,87.14Z"/><path class="cls-3" d="M27.9,78.92c-.31-.45-.59-.92-.88-1.38L24,79.6c.3.47.6.94.92,1.4s.72,1,1.09,1.48l3-2C28.63,79.94,28.26,79.44,27.9,78.92Z"/><path class="cls-3" d="M86.62,66.23a32.56,32.56,0,0,1-37.8,26.18A32,32,0,0,1,31.26,83L28.2,85.06A35.76,35.76,0,0,0,48.17,96a36.2,36.2,0,0,0,42-29.11,36.69,36.69,0,0,0,.53-4.51H87.06A34,34,0,0,1,86.62,66.23Z"/><path class="cls-3" d="M64.81,70.4A14,14,0,1,1,52.88,46.62V43a17.66,17.66,0,1,0,19.54,19.4H68.77A14,14,0,0,1,64.81,70.4Z"/><path class="cls-3" d="M72.45,58.87H68.81a14.13,14.13,0,0,1,0,3.5h3.65A17.79,17.79,0,0,0,72.45,58.87Z"/><path class="cls-3" d="M90.76,58.87h0c0,1,.05,2,0,3C90.8,60.84,90.8,59.85,90.76,58.87Z"/><path class="cls-3" d="M87.13,61.26c0,.37,0,.74-.07,1.11h3.67a2.09,2.09,0,0,0,0-.25L87.12,62C87.13,61.73,87.12,61.49,87.13,61.26Z"/><path class="cls-3" d="M87.1,58.87h0v0Z"/><path class="cls-3" d="M90.75,62.12c0-.1,0-.19,0-.29,0,.1,0,.19,0,.29Z"/><path class="cls-3" d="M90.74,58.87H87.1V59c0,.43,0,.85,0,1.28s0,.67,0,1,0,.47,0,.7l3.62.16c0-.1,0-.19,0-.29C90.79,60.84,90.78,59.85,90.74,58.87Z"/><path class="cls-3" d="M56.38,46.56V42.91a17.79,17.79,0,0,0-3.5.06v3.65A14.13,14.13,0,0,1,56.38,46.56Z"/><path class="cls-2" d="M54.63,53a7.41,7.41,0,1,0,7.42,7.43A7.44,7.44,0,0,0,54.63,53Zm0,11.18a3.77,3.77,0,1,1,3.79-3.75A3.77,3.77,0,0,1,54.63,64.19Z"/><circle class="cls-3" cx="54.63" cy="60.31" r="1.75"/><circle class="cls-3" cx="54.63" cy="1.75" r="1.75"/><path class="cls-3" d="M52.88,46.62V60.31h3.5V46.56A14.13,14.13,0,0,0,52.88,46.62Z"/><path class="cls-3" d="M87.1,59v-.1H72.33a17.05,17.05,0,0,1,0,3.5H87.06c0-.37.06-.74.07-1.11s0-.68,0-1S87.12,59.4,87.1,59Z"/><path class="cls-3" d="M64.68,70.41A14,14,0,0,1,40.89,62.5H37.23a17.64,17.64,0,0,0,35.07-.13H68.63A14,14,0,0,1,64.68,70.41Z"/><path class="cls-3" d="M72.33,58.87H68.67a14.13,14.13,0,0,1,0,3.5H72.3A17.05,17.05,0,0,0,72.33,58.87Z"/><path class="cls-2" d="M67.24,48a17.37,17.37,0,0,0-5.69-3.78v4a14,14,0,0,1,3.12,2.33,14.54,14.54,0,0,1,2.3,3h4A17.48,17.48,0,0,0,67.24,48Z"/><path class="cls-2" d="M99.93,57.55v-.06c-.05-.7-.11-1.4-.18-2.09,0,0,0-.09,0-.14-.08-.69-.17-1.37-.28-2l0-.13Q99.26,52,99,51v0a45.28,45.28,0,0,0-37.39-35.4v3.68A41.6,41.6,0,0,1,68,20.82v0A41.77,41.77,0,0,1,87.71,85.91l-.22.27c-.32.42-.65.82-1,1.22-.16.19-.32.38-.49.56s-.54.62-.83.92-.47.5-.71.74l-.75.76-.58.55-.85.77-.65.56c-.28.23-.56.47-.85.69l-.69.56-.9.66-.7.51c-.49.34-1,.68-1.51,1a43.1,43.1,0,0,1-6.21,3.24l-.38.15-1.16.46-.64.23-.91.31-.84.26-.71.22-1,.27-.56.14-1.12.26-.44.09q-.62.14-1.23.24l-.33,0-1.33.2-.19,0a41.39,41.39,0,0,1-7.95.26l-.71,3.6a44.87,44.87,0,0,0,7.69-.1h0l.3,0c.47,0,.95-.1,1.42-.17l.61-.09c.41-.06.82-.12,1.23-.2l.66-.12,1.21-.25.62-.14c.43-.1.85-.2,1.28-.32l.5-.13,1.44-.43.32-.1c.57-.18,1.14-.38,1.7-.58l0,0a45.17,45.17,0,0,0,8.47-4.14c.92-.58,1.8-1.19,2.66-1.83.29-.21.59-.42.87-.64s.53-.42.8-.63L84,95l.72-.62c.31-.27.61-.55.91-.83l.63-.6.29-.27.53-.55c.26-.27.52-.53.77-.8l.91-1,.52-.6c.38-.44.74-.89,1.09-1.34.08-.09.15-.19.23-.29A45.36,45.36,0,0,0,99.93,57.55Z"/><path class="cls-2" d="M87.7,45.85A36.18,36.18,0,0,0,40.05,27.37a35.81,35.81,0,0,0-17,15.46l3.42,1.36a32.48,32.48,0,0,1,57.87,3.13,32.8,32.8,0,0,1,2,6.3h3.73A36.25,36.25,0,0,0,87.7,45.85Z"/><path class="cls-2" d="M55.4,105.79l1.11,0,1.36-.08.79-.06c.57-.05,1.14-.12,1.71-.19l.37-.05A45.35,45.35,0,0,0,88.87,90.17l0,0c.46-.53.91-1.07,1.35-1.63l.08-.1c.43-.55.84-1.1,1.24-1.66l.08-.1c.41-.59.81-1.18,1.2-1.78h0a45.32,45.32,0,0,0-3.12-53.19L86.94,34a41.76,41.76,0,0,1,4.94,7.6h0a41.77,41.77,0,0,1-31.62,60.21l-.35,0c-.52.07-1,.12-1.56.17l-.74.06-1.23.07-1,0H54.27l-.8,0-1.14,0-.86,0-1.09-.1-.88-.1-1.11-.15-.85-.13c-.6-.11-1.19-.22-1.79-.35a42.39,42.39,0,0,1-6.69-2.06L38.69,99c-.39-.15-.77-.32-1.15-.49l-.62-.28-.87-.42-.78-.4-.65-.35c-.31-.16-.61-.33-.91-.5l-.49-.3q-.49-.28-1-.6l-.37-.24c-.35-.23-.7-.46-1-.7-.1-.06-.18-.13-.27-.19-.37-.26-.74-.52-1.1-.79l-.15-.12a41.75,41.75,0,0,1-4.58-4l-3,2.1A45.39,45.39,0,0,0,26,95.61h0c.07.07.16.13.23.19.38.3.75.59,1.13.87.16.13.33.25.5.37.33.25.67.49,1,.72l.56.38,1,.67.54.34,1.14.66c.15.09.3.18.46.26.43.25.87.48,1.32.71l.3.16c.53.26,1.07.52,1.62.77l0,0a45.4,45.4,0,0,0,8.94,3c1.06.23,2.11.41,3.17.57.36,0,.71.11,1.07.15l1,.11,1.15.11,1,.06,1.23,0,.87,0h.39Z"/><path class="cls-2" d="M22.66,54.6a32.52,32.52,0,0,1,56-16.06l2.68-2.45A36.14,36.14,0,0,0,21.58,75l3.07-2.13A32.17,32.17,0,0,1,22.66,54.6Z"/></g></g></svg>