<svg xmlns="http://www.w3.org/2000/svg" viewBox="0 0 177.26 118.14"><defs><style>.cls-1{fill:none;}.cls-2{fill:#7050e5;}.cls-3{fill:#f9f9f9;}.cls-4{fill:#fff;}</style></defs><title>Asset 1</title><g id="Layer_2" data-name="Layer 2"><g id="Layer_1-2" data-name="Layer 1"><polygon class="cls-1" points="103.32 3.68 12.71 50.87 24.48 57.17 24.48 57.17 80.93 87.52 172.65 38.92 103.32 3.68"/><polygon class="cls-1" points="88.89 91.89 88.89 104.19 173.76 56.34 173.76 42.3 85.72 90.11 88.89 91.89"/><path class="cls-2" d="M102.85,0,8.2,48.73,0,44.61V67.43l5.84,3.28v.06l74.41,42.52h0l8.64,4.85v-9.75l88.37-50.12V37.57ZM14.77,68.54c-1.14,0-2.06-1.62-2.06-3.62s.92-3.61,2.06-3.61,2.05,1.62,2.05,3.61S15.9,68.54,14.77,68.54Zm8.26,5C21.9,73.57,21,72,21,70s.92-3.62,2.05-3.62S25.09,68,25.09,70,24.17,73.57,23,73.57Zm24.2,16.54-1.18-.64.41-15.41,1.18.63ZM50,91.58l-1.19-.64.41-15.41,1.19.63Zm2.8,1.49-1.19-.63L52,77l1.19.63Zm2.8,1.5-1.19-.64.41-15.41,1.19.63ZM58.27,96l-1.19-.64L57.49,80l1.19.63Zm11.57,2.94-6.45-3.79V89l6.45,3.8ZM24.48,57.17h0l-11.77-6.3L103.32,3.68l69.33,35.24L80.93,87.52Zm149.28-.83L88.89,104.19V91.89l-3.17-1.78,88-47.81Z"/><polygon class="cls-3" points="46.05 89.47 47.23 90.11 47.64 74.69 46.46 74.06 46.05 89.47"/><polygon class="cls-3" points="48.8 90.94 49.99 91.58 50.4 76.17 49.21 75.53 48.8 90.94"/><polygon class="cls-3" points="51.6 92.44 52.79 93.07 53.2 77.66 52.02 77.03 51.6 92.44"/><polygon class="cls-3" points="54.41 93.93 55.59 94.57 56 79.16 54.81 78.52 54.41 93.93"/><polygon class="cls-3" points="57.08 95.36 58.27 96 58.68 80.58 57.49 79.95 57.08 95.36"/><path class="cls-3" d="M14.77,61.31c-1.14,0-2.06,1.62-2.06,3.61s.92,3.62,2.06,3.62,2.05-1.62,2.05-3.62S15.9,61.31,14.77,61.31Z"/><path class="cls-3" d="M23,66.34C21.9,66.34,21,68,21,70s.92,3.61,2.05,3.61S25.09,72,25.09,70,24.17,66.34,23,66.34Z"/><polygon class="cls-4" points="63.39 95.15 69.84 98.94 69.84 92.75 63.39 88.95 63.39 95.15"/></g></g></svg>