<?xml version="1.0" encoding="utf-8"?>
<!-- Generator: Adobe Illustrator 23.1.0, SVG Export Plug-In . SVG Version: 6.00 Build 0)  -->
<svg version="1.1" id="Layer_1" xmlns="http://www.w3.org/2000/svg" xmlns:xlink="http://www.w3.org/1999/xlink" x="0px" y="0px"
	 viewBox="0 0 177.3 118.1" style="enable-background:new 0 0 177.3 118.1;" xml:space="preserve">
<style type="text/css">
	.st0{fill:none;}
	.st1{fill:#7050E5;}
	.st2{fill:#F9F9F9;}
	.st3{fill:#FFFFFF;}
	.st4{fill:#FF8B00;}
</style>
<title>Asset 1</title>
<g>
	<g id="Layer_1-2">
		<polygon class="st0" points="103.3,3.7 12.7,50.9 24.5,57.2 24.5,57.2 80.9,87.5 172.6,38.9 		"/>
		<polygon class="st0" points="88.9,91.9 88.9,104.2 173.8,56.3 173.8,42.3 85.7,90.1 		"/>
		<path class="st1" d="M102.8,0L8.2,48.7L0,44.6v22.8l5.8,3.3v0.1l74.4,42.5l0,0l8.6,4.8v-9.8l88.4-50.1V37.6L102.8,0z M14.8,68.5
			c-1.1,0-2.1-1.6-2.1-3.6s0.9-3.6,2.1-3.6s2,1.6,2,3.6C16.8,66.9,15.9,68.5,14.8,68.5z M23,73.5c-1.1,0-2-1.5-2-3.5s0.9-3.6,2-3.6
			s2,1.6,2,3.6S24.2,73.6,23,73.5L23,73.5z M47.2,90.1l-1.2-0.6L46.5,74l1.2,0.6L47.2,90.1z M50,91.6l-1.2-0.6l0.4-15.4l1.2,0.6
			L50,91.6z M52.8,93.1l-1.2-0.6L52,77l1.2,0.6L52.8,93.1z M55.6,94.6l-1.2-0.6l0.4-15.4l1.2,0.6L55.6,94.6z M58.3,96l-1.2-0.6
			L57.5,80l1.2,0.6L58.3,96z M69.8,98.9l-6.5-3.8V89l6.5,3.8V98.9z M24.5,57.2L24.5,57.2l-11.8-6.3l90.6-47.2l69.3,35.2L80.9,87.5
			L24.5,57.2z M173.8,56.3l-84.9,47.9V91.9l-3.2-1.8l88-47.8L173.8,56.3z"/>
		<polygon class="st2" points="46,89.5 47.2,90.1 47.6,74.7 46.5,74.1 		"/>
		<polygon class="st2" points="48.8,90.9 50,91.6 50.4,76.2 49.2,75.5 		"/>
		<polygon class="st2" points="51.6,92.4 52.8,93.1 53.2,77.7 52,77 		"/>
		<polygon class="st2" points="54.4,93.9 55.6,94.6 56,79.2 54.8,78.5 		"/>
		<polygon class="st2" points="57.1,95.4 58.3,96 58.7,80.6 57.5,79.9 		"/>
		<path class="st2" d="M14.8,61.3c-1.1,0-2.1,1.6-2.1,3.6s0.9,3.6,2.1,3.6s2-1.6,2-3.6S15.9,61.3,14.8,61.3z"/>
		<path class="st2" d="M23,66.3c-1.1,0-2,1.7-2,3.7s0.9,3.6,2,3.6s2-1.6,2-3.6S24.2,66.3,23,66.3z"/>
		<polygon class="st3" points="63.4,95.2 69.8,98.9 69.8,92.8 63.4,88.9 		"/>
	</g>
</g>
<polygon class="st4" points="88.9,91.9 85.7,90.1 173.7,42.3 173.8,56.3 88.9,104.2 "/>
</svg>
